<svg width="44" height="44" fill="none" xmlns="http://www.w3.org/2000/svg">
  <path d="M44 22A22 22 0 0 1 6.4 37.6 22 22 0 0 1 22 0a22 22 0 0 1 22 22Z" fill="#fff"/>
  <g clip-path="url(#a)" fill="#AFB1B8">
    <path d="M32 17.9c0-1-.2-1.8-.5-2.4-.2-.7-.6-1.3-1.1-1.8a5 5 0 0 0-1.8-1.2 68.3 68.3 0 0 0-13.1 0c-.7.3-1.3.7-1.8 1.2a5 5 0 0 0-1.1 1.7c-.3.7-.5 1.4-.5 2.5a68.3 68.3 0 0 0 .5 10.7 5 5 0 0 0 1.1 1.7 5 5 0 0 0 1.8 1.2 7 7 0 0 0 2.4.4 73.2 73.2 0 0 0 10.7-.4 5.1 5.1 0 0 0 3-3l.4-2.4a73.4 73.4 0 0 0 0-8.2ZM30.2 26c0 1-.2 1.5-.4 1.9a3 3 0 0 1-1.9 1.9c-.3.1-.8.3-1.8.3a70.4 70.4 0 0 1-10-.3 3 3 0 0 1-1.1-.7c-.3-.4-.6-.8-.7-1.2-.2-.3-.4-.9-.4-1.9a70.4 70.4 0 0 1 .4-9.9c.1-.4.4-.8.7-1.1.3-.4.7-.6 1.1-.8.4-.1 1-.3 2-.3a70.5 70.5 0 0 1 9.8.3c.5.2.9.4 1.2.8.3.3.6.7.7 1.1.2.4.3.9.4 1.9a70.5 70.5 0 0 1 0 8Z"/>
    <path d="M22 16.9A5.1 5.1 0 1 0 22 27a5.1 5.1 0 0 0 0-10Zm0 8.4a3.3 3.3 0 1 1 0-6.6 3.3 3.3 0 0 1 0 6.6Zm6.6-8.6a1.2 1.2 0 1 1-2.4 0 1.2 1.2 0 0 1 2.4 0Z"/>
  </g>
  <defs>
    <clipPath id="a">
      <path fill="#fff" transform="translate(12 12)" d="M0 0h20v20H0z"/>
    </clipPath>
  </defs>
</svg>
