<svg width="44" height="44" fill="none" xmlns="http://www.w3.org/2000/svg">
  <path d="M44 22A22 22 0 0 1 6.4 37.6 22 22 0 0 1 22 0a22 22 0 0 1 22 22Z" fill="#fff"/>
  <g clip-path="url(#a)" fill="#AFB1B8">
    <path d="M32 32v-7.3c0-3.6-.8-6.4-5-6.4-2 0-3.3 1.1-3.9 2.2v-1.9h-4V32h4.1v-6.6c0-1.8.3-3.4 2.5-3.4 2.1 0 2.2 2 2.2 3.5V32H32ZM12.3 18.6h4.2V32h-4.2V18.6Zm2.1-6.6c-1.3 0-2.4 1-2.4 2.4 0 1.3 1 2.4 2.4 2.4a2.4 2.4 0 0 0 0-4.8Z"/>
  </g>
  <defs>
    <clipPath id="a">
      <path fill="#fff" transform="translate(12 12)" d="M0 0h20v20H0z"/>
    </clipPath>
  </defs>
</svg>
