<svg aria-hidden="true" style="position:absolute;width:0;height:0;overflow:hidden" xmlns="http://www.w3.org/2000/svg">
  <defs>
    <symbol id="icon-antenna_o" viewBox="0 0 32 32">
      <path fill="#212121" style="fill:var(--color1, #212121)" d="m30.8 22-8.5-8.4 1-4.6.7.1a2.1 2.1 0 1 0-2-1.4l-5 .6L9 0h-.4l-.4.1-1.5 1.5c-.2.3-.2.6 0 .8l.8.8a14.9 14.9 0 0 0 2.7 17.7v6.8H3.6A2.7 2.7 0 0 0 1 30.4v1c0 .3.2.6.5.6H26c.3 0 .6-.3.6-.6v-1c0-1.5-1.2-2.7-2.7-2.7h-6.4V25a14.6 14.6 0 0 0 10.1-1.5l.8.8.4.2s.3 0 .4-.2l1.5-1.5c.2-.2.2-.5 0-.8zM23.3 6.3c.2-.2.4-.3.7-.3a1 1 0 0 1 0 2 1 1 0 0 1-.7-1.8zm-1.2 3.5-.6 3-1.2-1.2 1.8-1.8zm-.6-.9-2 2-1.4-1.6 3.4-.4zm2.5 20c1 0 1.6.7 1.6 1.6v.5H2.1v-.5c0-1 .7-1.6 1.6-1.6H24zm-7.5-2.1v1h-5.3v-1h5.3zm-5.3-1.1v-4c0-1.3 1.2-2.4 2.7-2.4 1.5 0 2.6 1 2.6 2.3v4.1h-5.3zm6.4-1.7v-2.4c0-1.8-1.7-3.4-3.7-3.4h-.1c-1.3 0-2.5.7-3.2 1.8A13.8 13.8 0 0 1 8.4 4l18.5 18.8a13.6 13.6 0 0 1-9.4 1.1h.1zm11.3-.7-.7-.8L8.6 2.7l-.8-.6.7-.8 8 8 13.2 13.1-.8.8z"/>
      <path fill="#2196f3" style="fill:var(--color2, #2196f3)" d="M13.9 20.3a1.6 1.6 0 1 0 0 3.2 1.6 1.6 0 1 0 0-3.2zm.4 2a.6.6 0 1 1-.4-1 .5.5 0 0 1 .4 1z"/>
    </symbol>
    <symbol id="icon-astronaut_o" viewBox="0 0 32 32">
      <path fill="#2196f3" style="fill:var(--color2, #2196f3)" d="M32 4.5c0-.2-.3-.3-.5-.3l-1.9-.3-.8-1.8c-.2-.3-.8-.3-1 0L27 4l-1.8.3a.5.5 0 0 0-.3.9L26 6.4l-.3 2a.5.5 0 0 0 .8.5l1.7-1L30 9h.2a.5.5 0 0 0 .6-.6l-.4-1.9L31.8 5c.2 0 .2-.3.2-.5zM29.5 6l-.2.4.2 1.2-1-.6h-.4l-1 .6.1-1.2V6l-1-.8 1.2-.2c.2 0 .3-.1.4-.3l.5-1 .5 1 .4.2 1.1.2-.8.8zm-3.4 14.6h-1v1h1v-1zm0 2.2h-1v1h1v-1zm1.1-1.1h-1v1h1v-1zm-2.1 0H24v1h1v-1zm-2.7 4.8h-1v1h1v-1zm0 2.1h-1v1h1v-1zm1-1h-1v1h1v-1zm-2 0h-1.1v1h1v-1zM16 24.1h-1v1.1h1v-1zm0 2.2h-1v1h1v-1zm1-1h-1v1h1v-1zm-2 0h-1.1v1h1v-1zM5.8 6h-1v1h1V6zm0 2.1h-1v1.1h1v-1zM7 7.2H5.8v1h1v-1zm-2.2 0h-1v1h1v-1z"/>
      <path fill="#212121" style="fill:var(--color1, #212121)" d="M24.7 14.2c-.3-.4-.7-.7-1.1-.8-.5 0-1 .1-1.4.4l-1.3 1-1.9 1.4-1.4-.6a7 7 0 0 0-2.8-13.2A7 7 0 0 0 9 13H6l-3.3 1.6-1.9 1a1.8 1.8 0 1 0 1.8 3l1.3-.7 2.3-1.2h1.4l-5.4 5.4-1.4 1.3a1.6 1.6 0 0 0 0 2.3 1.6 1.6 0 0 0 2.4 0l1.4-1.3 1.7-1.2.9.9-1.8 1.7-1.3 1.4a1.6 1.6 0 0 0 0 2.3 1.7 1.7 0 0 0 2.4 0l3.4-3.4 1-1 5.2-5.7 3.5.5a.5.5 0 0 0 .2 0h.1l3.2-2.2h.1l1.3-1.3a1.8 1.8 0 0 0 .2-2.3zM2.2 17.8h-.6a.7.7 0 0 1-.2-1.3l1.3-.6.3 1 .2.4-1 .4zM5.7 16l-1.6.7-.3-.7-.1-.5 2-1V16zm15-6.7c0 1-.1 1.8-.5 2.6l-4.2-2c0-.5-.3-1-.8-1.3l1.5-4.9a6 6 0 0 1 4.1 5.6zM9 9.3a5.9 5.9 0 0 1 6.6-5.8L14 8.2c-1 0-1.9.8-1.9 1.9v.2a1.8 1.8 0 0 0 3.5.7l3.9 1.8A5.9 5.9 0 0 1 9 9.3zm6 .8c0 .5-.4.8-.9.8s-.8-.3-.8-.8.4-.8.8-.8.8.4.8.8zm-12.5 15c-.2.3-.6.3-.9 0a.6.6 0 0 1 0-.8l1-1 .9.9-1 1zm3.2 3.7c-.2.3-.6.3-.8 0a.6.6 0 0 1 0-.8l1-.9.4.4.4.4-1 1zm3.5-3.4-1.7 1.8-.5-.4-.4-.5 1.8-1.8v-.3h.1V24l-.1-.2-1.6-1.6h-.1l-.1-.1h-.7l-1.7 1.4-1-1 2.5-2.3 4.4 4.3-1 .9zm6.8-7-.4.1-4.8 5.3-4.4-4.3 2.9-2.8.1-.4c0-.3-.2-.5-.5-.5H6.7v-1.6h3a7 7 0 0 0 6.4 2l2.5 1 .1.8.2.9-3-.5zm4 .2-.3-1.6 1.5-1 .4.4.5.8-2 1.4zm3.8-2.9-.8.8-1-1.2.9-.6c.1-.2.3-.2.5-.2a.7.7 0 0 1 .5 1.2z"/>
      <path fill="#212121" style="fill:var(--color1, #212121)" d="m13.6 18.6-2.2-2.2a.5.5 0 0 0-.7 0l-2.2 2.2a.5.5 0 0 0 0 .7l2.2 2.1.3.2c.1 0 .3 0 .4-.2l2.2-2.1a.5.5 0 0 0 0-.7zm-2.5 1.7-1.4-1.4 1.4-1.3 1.3 1.3-1.3 1.4zM17 5v1.1s1.8.5 1.8 2.2h1c0-2-1.7-3-2.6-3.2zm2.6 4.3h-1v1h1v-1z"/>
    </symbol>
    <symbol id="icon-clock_o" viewBox="0 0 32 32">
      <path fill="#212121" style="fill:var(--color1, #212121)" d="M31.3 15.3a15.3 15.3 0 1 0-19.9 14.6h.5l.3-.5L16 17.2a2 2 0 1 0-.8-3.6L10 8.5a.6.6 0 1 0-1 .9l5.2 5c-.2.3-.2.6-.2.9 0 .6.3 1.1.7 1.5l-3.6 11.7a14 14 0 1 1 10.6-.4h-.1l-.4-1.9a.6.6 0 0 0-1-.3l-3.9 3.4a.6.6 0 0 0 .2 1.1l5 1.6h.1a.6.6 0 0 0 .7-.7l-.4-1.9c5.5-2.3 9.3-7.7 9.3-14zM16 14.6a.6.6 0 0 1 0 1.3.6.6 0 0 1 0-1.3zm2.1 14.9 2.2-2 .6 2.9-2.8-1z"/>
      <path fill="#2196f3" style="fill:var(--color2, #2196f3)" d="M15.4 3.2v1.3a.6.6 0 0 0 1.2 0V3.2a.6.6 0 0 0-1.2 0zM3.9 14.6a.7.7 0 0 0 0 1.4h1.3a.6.6 0 0 0 0-1.3H3.9zM28 16a.6.6 0 0 0 0-1.3h-1.3a.6.6 0 0 0 0 1.3H28z"/>
    </symbol>
    <symbol id="icon-diagram_o" viewBox="0 0 32 32">
      <path fill="#2196f3" style="fill:var(--color2, #2196f3)" d="M14.9 15H16v4.7h-1.1V15zm4.3 2.1h1v2.6h-1v-2.6zm-8.5 1.6h1v1h-1v-1zm-3.2-.6h1v1.6h-1v-1.6z"/>
      <path fill="#212121" style="fill:var(--color1, #212121)" d="M1.6 28.3h25.6c.9 0 1.6-.7 1.6-1.6v-2.2c0-.9-.7-1.6-1.6-1.6h-.5V9.7l3-2.9.7.2a1.6 1.6 0 1 0-1.5-1l-2.2 2.2V6.9c0-.8-.8-1.6-1.6-1.6H3.7c-.9 0-1.6.8-1.6 1.6v16h-.5c-1 0-1.6.8-1.6 1.6v2.2c0 1 .7 1.6 1.6 1.6zM30.4 4.8h.2a.5.5 0 1 1-.2 1.1.5.5 0 0 1 0-1zM3.2 7c0-.2.2-.5.5-.5h21.4c.2 0 .5.3.5.5v2.3l-1.1 1V8c0-.3-.2-.5-.5-.5H4.8c-.3 0-.5.2-.5.5v13.4c0 .3.2.5.5.5H24c.3 0 .5-.2.5-.5v-9.7l1.1-1v12.2H3.2V7zM8 14a1.6 1.6 0 1 0 1 2.6l1.8 1 .7-.1 4-4.5 3.8 3h.7l3.4-3.3v8.1H5.3V8.5h18.2v2.7l-3.8 3.6-4-3a.6.6 0 0 0-.7.1l-4 4.6-1.4-.8v-.2c0-.9-.7-1.6-1.6-1.6zm.5 1.6a.5.5 0 0 1-1 0 .5.5 0 0 1 1 0zm3.2 8.5h5.4v.5c0 .4-.3.6-.6.6h-4.2c-.3 0-.6-.2-.6-.6V24zm-10.6.5c0-.2.2-.5.5-.5h9v.5c0 1 .8 1.6 1.7 1.6h4.2c1 0 1.6-.6 1.6-1.6V24h9.1c.3 0 .5.3.5.5v2.2c0 .3-.2.5-.5.5H1.6a.6.6 0 0 1-.6-.5v-2.2z"/>
    </symbol>
    <symbol id="icon-face_o" viewBox="0 0 32 32">
      <path fill="#fff" style="fill:var(--color3, #fff)" d="M32 16A16 16 0 0 1 4.7 27.4 16 16 0 0 1 15.9 0h.1a16 16 0 0 1 16 16z"/>
      <path fill="#afb1b8" style="fill:var(--color4, #afb1b8)" d="M18.4 11.1h1.4V8.8h-2c-1.9 0-3.2 1.2-3.2 3.3v2h-2.2v2.7h2.2v6.5h2.6v-6.6h2l.4-2.5h-2.4v-1.8c0-.7.2-1.3 1.2-1.3z"/>
    </symbol>
    <symbol id="icon-insta_o" viewBox="0 0 32 32">
      <path d="M32 16A16 16 0 0 1 4.7 27.4 16 16 0 0 1 15.9 0h.1a16 16 0 0 1 16 16z"/>
      <path d="M23.3 13c0-.7-.2-1.3-.4-1.7A3.6 3.6 0 0 0 21 9h-.1a48 48 0 0 0-9.7 0h.2a3 3 0 0 0-1.3.9c-.4.3-.6.7-.8 1.2-.3.5-.4 1-.4 1.8a47.9 47.9 0 0 0 .4 8v-.2c.2.5.4.9.8 1.2.3.4.8.7 1.2.9l1.8.3a50.9 50.9 0 0 0 8-.3h-.2c1-.4 1.8-1.2 2.2-2.1l.3-1.8v-6.1.1zM22 19c0 .6-.2 1-.3 1.3-.2.6-.8 1.2-1.4 1.4-.2 0-.6.2-1.3.2a48.7 48.7 0 0 1-7.5-.2h.2l-.8-.5-.5-1a48.5 48.5 0 0 1 0-8.8v.3c0-.3.3-.6.5-.8.2-.3.5-.4.8-.6.3 0 .7-.2 1.5-.2a49.1 49.1 0 0 1 7.3.2h-.2l.9.6.5.8.3 1.4V19z"/>
      <path fill="#afb1b8" style="fill: var(--color4, #afb1b8)" d="M16 12.3h-.5a3.7 3.7 0 1 0 .5 7.3 3.7 3.7 0 0 0 0-7.2zm0 6.1a2.4 2.4 0 0 1 0-4.8 2.4 2.4 0 0 1 0 4.8zm4.8-6.3a.9.9 0 0 1-1.7 0 .9.9 0 0 1 1.7 0z"/>
    </symbol>
    <symbol id="icon-linkd_o" viewBox="0 0 32 32">
      <path fill="#fff" style="fill:var(--color3, #fff)" d="M32 16A16 16 0 0 1 4.7 27.4 16 16 0 0 1 15.9 0h.1a16 16 0 0 1 16 16z"/>
      <path fill="#afb1b8" style="fill:var(--color4, #afb1b8)" d="M23.3 23.3V18c0-2.7-.6-4.7-3.7-4.7-1.4 0-2.4.8-2.8 1.6v-1.4h-3v9.8h3v-4.8c0-1.3.3-2.5 1.9-2.5 1.5 0 1.6 1.5 1.6 2.5v4.8h3zM8.9 13.5H12v9.8H9v-9.8zm1.6-4.8c-1 0-1.8.8-1.8 1.8s.8 1.7 1.8 1.7a1.7 1.7 0 1 0 0-3.5z"/>
    </symbol>
    <symbol id="icon-Logo1_o" viewBox="0 0 57 32">
      <path d="M20.3 3.7 24 7.3h-7v17.1h18.2V18l3.7 3.5V3.7H20.3zM35 17.4l-10.6-10H35v10zM31.7 22H20V10.4h.8v10.7h11v.8zm-9 4.8-.4 1-.4-1h-.4l.6 1.1v.8h.4v-.8l.6-1.1h-.4zm.6 2 .1-.5h.8l.1.4h.3l-.6-2h-.3l-.8 2h.4zm.5-1.6.3.8h-.6l.3-.8zm1.7.7v.3c0 .2 0 .3.2.4l.4.1.5-.1v.1h.4l-.2-.3.1-.6h-.2l-.1.4-.4-.5h.1l.2-.2v-.6h-.7l-.2.4v.2l.2.2a1 1 0 0 0-.3.2zm.9.5h-.5l-.1-.2.1-.3.5.5zm-.4-.8V27h.3v.3l-.2.2zm3.1 1c.2-.1.2-.3.2-.5H29v.3h-.7l-.1-.6v-.1l.1-.5.3-.1h.3l.1.4h.3c0-.3 0-.4-.2-.6h-.9l-.3.3v1.1l.3.3.4.1.5-.1zm2-.3v-1.1a.7.7 0 0 0-.7-.4l-.4.1c-.2 0-.3.2-.3.3l-.1.5v.1l.1.5c0 .2.2.3.3.3l.4.1h.4l.3-.4zm-.4-1 .1.4v.6l-.4.2c-.2 0-.3 0-.4-.2v-1.1l.4-.1.3.1z"/>
    </symbol>
    <symbol id="icon-Logo2_o" viewBox="0 0 57 32">
      <path d="M26.7 3.2h-1.3c-2 0-3.9.5-5.6 1.3l-.3.1v12l.6-.3a20 20 0 0 1 5.8-1V17h-.6a18 18 0 0 0-7.4 2h.1V3.8c2.3-1.4 5-2.2 8-2.2h.3c1 0 2 .2 2.9.4H29v1.5l-2-.3h-.4zm2.7 1.5h1c3 0 5.8-.7 8.2-2v14.9a15.7 15.7 0 0 1-11.2 1.8h.1v-15a6 6 0 0 0 2 .3zM37 5l-.6.1-1.5.5a17.8 17.8 0 0 1-5.5.5h-.3v12.1h.3l1 .1c2.4 0 4.5-.5 6.5-1.5h-.1.2v-12zM19 24.1a.8.8 0 0 0-.5-.2h-.4a.8.8 0 0 0-.5.8v2l.1.4c0 .2.1.3.2.3l.3.2h.6c.3-.2.5-.5.5-.8v-.2h-.5v.3l-.2.2h-.2l-.2-.1v-2.5l.2-.2c.1 0 .2 0 .3.2v.4h.6v-.2a1 1 0 0 0-.3-.6zm3.2 0a1 1 0 0 0-1-.2l-.2.2-.2.3V27l.2.3.3.1a.9.9 0 0 0 .6 0l.3-.1c.2-.2.3-.4.3-.7v-2l-.1-.3-.2-.3zm-.2 2.6-.1.3a.4.4 0 0 1-.6 0v-2.5a.4.4 0 0 1 .6 0v2.2zm4.3.9v-3.7h-.5l-.6 2-.7-2h-.6v3.7h.6v-2.3L25 27h.3l.5-1.6v2.3h.5zm3-3.4-.3-.3h-1.2v3.7h.6V26h.7l.3-.3.1-.4a2.6 2.6 0 0 0 0-1l-.2-.2zm-.2 1v.3l-.2.1a.5.5 0 0 1-.3 0h-.2v-1.2h.5l.1.2v.7zm2.7-1.3h-.4l-.8 3.7h.5l.2-.8h.6l.2.8h.5l-.8-3.7zm-.5 2.4.3-1.3.2 1.3h-.5zm3.9-.2-.9-2.2H34v3.7h.5v-2.2l.8 2.2h.5v-3.7h-.5V26zm3.2-2.2-.4 1.4-.5-1.4H37l.7 2.1v1.6h.5V26l.7-2.1h-.5zm-20.8 4.7h.3v.7h.1v-.7h.3v-.1h-.7zm2.1-.1-.3.8h.2v-.2h.4v.2h.3l-.4-.8h-.2zm0 .5v-.4l.2.4h-.2zm2.2 0h.1v.1h-.3l-.2-.2c0-.2.2-.3.3-.3l.2.1h.2c0-.2-.2-.3-.4-.3l-.3.1a.4.4 0 0 0-.1.4v.3l.4.1.4-.1v-.3h-.4v.1zm2.1-.5h-.2v.8h.6v-.1H24v-.7zm1.8 0h-.2v.8h.2v-.8zm1.7.5-.3-.5H27v.8h.2v-.5l.3.5h.2v-.8h-.2v.5zm1.6 0h.4v-.2h-.4v-.2h.5v-.1H29v.8h.6v-.1h-.5V29zm4-.2h-.4v-.3h-.2v.8h.2V29h.3v.3h.2v-.8H33v.3zm1.6.2h.3v-.2h-.3v-.2h.4v-.1h-.6v.8h.6v-.1h-.4V29zm2.1 0c.2 0 .2-.1.2-.3v-.2h-.7v.8h.2V29h.1l.3.3h.2v-.1l-.3-.2zm-.2-.2v-.2h.2a.1.1 0 0 1 0 .2s-.1 0-.2 0zm1.9.2h.4v-.2h-.4v-.2h.4v-.1h-.6v.8h.6v-.1h-.4V29z"/>
    </symbol>
    <symbol id="icon-Logo3_o" viewBox="0 0 57 32">
      <path d="M19.4 26.2h.2l-.3.3-.5.1h-.5l-.3-.3-.2-.3a1 1 0 0 1 0-.8l.2-.3.4-.2a1.3 1.3 0 0 1 .9 0l.3.2-.1.1h-.2a.8.8 0 0 0-.4-.1h-.4l-.3.2-.1.2v.7l.1.2.3.1h.5l.4-.1zm3.4-.6v.4l-.3.3-.4.2h-.9a1 1 0 0 1-.3-.2l-.2-.3a1 1 0 0 1 0-.8l.2-.3.3-.2h1l.3.2c.1.2.3.4.3.7zm-.3 0v-.3L22 25a1 1 0 0 0-.6 0l-.3.2-.1.2v.6c0 .2.2.4.4.4h.6l.2-.1.2-.3v-.2zm2.6.4v-.1l.8-1.2h.4v1.9H26V25l-.7 1.1H25L24 25v1.5-1.9h.3L25 26v.1zm2.7-.1v.7h-.2v-2h1l.3.3v.1l.1.3v.2l-.2.2-.2.1h-.8zm0-.2h.6l.2-.2v-.7l-.4-.1h-.4v.8zm4 .9h-.3l-.2-.6h-1l-.3.6h-.3l.9-2h.3l.9 2zm-1.5-.7h.8l-.3-.8V25v.2l-.5.8zm2.8-1.2 1.2 1.4v-1.4h.3v1.9h-.2L33.1 25v1.4h-.3v-1.9h.2zm3.6 1.1v.8h-.2v-.8l-.9-1.1h.4l.5.8v.1h.1v-.1l.6-.8h.3l-.7 1.1zM25 21.5h.4c2-.8 3.6-2 4.8-3.6a8.5 8.5 0 0 0 1.7-5.3l-2.1-1.8a9.4 9.4 0 0 1-.7 6v-.1c-.9 2-2.3 3.6-4 4.8z"/>
      <path d="M24.2 21.3c2-1.1 3.5-2.8 4.3-4.8s1-4.2.4-6.2l-3-2.7a11.4 11.4 0 0 1-1.7 13.7zm10.4-6.5a10 10 0 0 1-3.6 5.3l-1.8 1.1c1.6-.4 3-1 4.1-2 1-1 2-2 2.5-3.3l-1.2-1z"/>
      <path d="M34.1 14.6 32.3 13c0 1.8-.6 3.6-1.6 5a11.3 11.3 0 0 1-4.3 3.5h-.1 1.2c1.7-.6 3.1-1.6 4.3-2.8a9 9 0 0 0 2.3-4v-.1zm-9.7-8-2.1-2a10 10 0 0 0-4.7 3.2 7.8 7.8 0 0 0 .4 10.3c1.4 1.6 3.3 2.7 5.5 3.2a11.3 11.3 0 0 0 .9-14.8zM39 14.1c0-2.3-1-4.5-3-6A10.9 10.9 0 0 0 25.4 6l13 11.3c.5-1 .7-2 .7-3.2z"/>
    </symbol>
    <symbol id="icon-Logo4_o" viewBox="0 0 57 32">
      <path d="M12.9 11.3c-1.3 0-2.3.9-2.3 2 0 1.2 1 2 2.3 2 1.2 0 2.3-.8 2.3-2 0-1.1-1-2-2.3-2zm17-.7c0-1.6-.6-3-1.9-4.3a7.2 7.2 0 0 0-9.5 0 6.4 6.4 0 0 0-2 4.3v8.7S30 18 30 10.6zM6 22.1a4 4 0 0 0 1.4 3 5 5 0 0 0 3.2 1.2h.1a5 5 0 0 0 3.2-1.2 4 4 0 0 0 1.4-3v-6s-9.3 1-9.3 6zm4.6 1.1c-.2 0-.5 0-.6-.2a1 1 0 0 1-.5-.4V22c0-.2 0-.5.3-.6.1-.2.4-.3.6-.3h.7l.5.4a1 1 0 0 1 0 1.4l-.5.2-.5.2zm9.4-.5h-1v.9h-.3v-2.3H20v.5h-1v.5h.9v.4zm2.3-.2-.1.5a1 1 0 0 1-.8.6l-.6-.1-.3-.4-.1-.6v-.7c.2-.3.5-.5.9-.5h.6c0 .2.2.4.3.5v.7zm-.4-.1c0-.3 0-.4-.2-.5 0-.2-.2-.2-.4-.2-.1 0-.2 0-.3.2l-.2.5v.1c0 .2 0 .4.2.5l.3.2c.1 0 .3 0 .4-.2l.2-.5v-.1zm2 .5-.2-.1-.3-.2a.6.6 0 0 1-.4-.1c-.2-.2-.4-.4-.4-.6l.1-.3.3-.3h.9l.3.3.1.4h-.5v-.3a.4.4 0 0 0-.3 0H23l-.1.2v.2l.4.1c.3 0 .5.2.6.3.2.2.2.3.2.5l-.2.5-.6.1h-.5l-.3-.3-.1-.4h.4c0 .2.2.4.5.4 0 0 .2 0 .2-.2l.1-.1zm2.4-1.2h-.7v1.9h-.4v-1.9h-.7v-.4h1.8v.4zm1.6 1H27v.5h1v.4h-1.5v-2.3H28v.5h-1v.5h.9v.4zm1.3 0h-.3v.9h-.4v-2.3h.8l.6.2c.2.2.2.3.2.6v.4l-.3.2.4 1h-.5l-.4-1zm-.3-.3h.7v-.6h-.7v.6zm2.9.4v.8H31v-2.3h1l.4.1.4.3v.4c0 .2 0 .4-.2.6l-.6.1h-.4zm0-.3h.4c.1 0 .2 0 .3-.2V22l-.3-.1h-.4v.6zm3 .2h-1v.6h1v.3h-1.4v-2.3h1.4v.5h-1.1v.5h1v.4zm2.1-1h-.7v2h-.5v-2H35v-.4h1.9v.5zm1.6 1h-.9v.6h1.1v.3h-1.5v-2.3h1.5v.5h-1v.5h.8v.4zm1.3 0h-.3v1h-.6v-2.4h1l.5.2c.2.2.2.3.2.6v.4l-.3.2.5 1h-.5l-.5-1zm-.3-.3h.6l.1-.3-.1-.3h-.6v.6zm2.7.6v-.2l-.4-.1-.4-.2a.5.5 0 0 1-.4-.5l.1-.3c0-.2.2-.3.3-.3h.9l.3.3v.3h-.4l-.1-.2a.4.4 0 0 0-.3 0h-.3v.2l.1.1.3.2c.3 0 .4.2.5.3.2.1.3.2.3.4l-.3.5a1 1 0 0 1-.5.2l-.6-.1-.3-.3-.1-.4h.5c0 .2.1.4.5.4l.2-.1V23z"/>
    </symbol>
    <symbol id="icon-Logo5_o" viewBox="0 0 57 32">
      <path d="m14.3 23.8.2.6-.1.3-.2.3c-.3.2-.6.3-1 .3h-1.5V22h1.5c.3 0 .7 0 .9.2l.2.3.1.3c0 .2 0 .4-.2.6l-.4.2.5.2zm-1.8-.4h.6l.4-.1.1-.2v-.3l-.1-.2h-1v.8zm1 1.2.2-.1V24l-.1-.2h-1.1v.8h1.1zm3.9.7-.9-1.3h-.3v1.3h-.7V22h1.4c.3 0 .6 0 1 .2l.2.7c0 .2 0 .6-.2.7-.1.2-.4.3-.6.3l.9 1.4h-.8zm-1.2-1.8h.6c.4 0 .6-.1.6-.5v-.2l-.1-.1-.5-.2h-.6v1zm5.1 1.1H20l-.3.7H19l1.3-3.3h.8l1.3 3.3h-.7l-.3-.7zm-.2-.5-.5-1.4-.5 1.4h1zm5.2 1.2h-.7L24 23v2.3h-.7V22h.6l1.6 2.2V22h.8v3.3zm4.1-.8-.6.6-1 .2h-1.3V22h1.3c.4 0 .7 0 1 .2.3 0 .5.3.7.5l.2.9-.3.9zm-.8 0a1.2 1.2 0 0 0 0-1.7 1 1 0 0 0-1-.2h-.4v2h.5c.3 0 .6 0 .9-.2zm-7.8-21s9.3 3.2 9 7.9v7.9s-9.2-3.2-9-8V3.7zm17.4 13.9a14 14 0 0 1 5.9-2V13a12 12 0 0 0-5.9 4.4z"/>
      <path d="M38.1 18.2c1.5-2.6 4-4.7 7-5.7v-7S31.8 10 32 16.5v11.2l1.6-.5v-1.1c.3-3.1 1.9-6 4.4-8z"/>
      <path d="M36.9 22.4c0-.7.2-1.5.4-2.3a10.3 10.3 0 0 0-2.8 6.8l2.6-1.2c-.2-1.1-.4-2.2-.2-3.2zm.5 0a9.8 9.8 0 0 0 .2 3c3.6-2 7.6-5 7.5-8.8v-.3a13 13 0 0 0-7 3c-.3 1-.6 2-.7 3.2z"/>
    </symbol>
    <symbol id="icon-Logo6_o" viewBox="0 0 57 32">
      <path d="M28.5 14.6a1.6 1.6 0 0 1-.3-1V12c0-.4 0-.8.3-1 .2-.3.6-.4 1-.4.6 0 1 0 1.1.3.3.2.4.6.3.9v.4h-.8v-.7l-.2-.2-.3-.2c-.1 0-.2 0-.3.2-.1 0-.2 0-.2.2v2.7l.3.1.2.1.3-.1.1-.2v-.8h1v.4a1.6 1.6 0 0 1-.3 1c-.2.2-.6.3-1.1.3s-.9-.1-1-.4zm3.7 0c-.3-.2-.4-.5-.4-1v-1.7c0-.4 0-.8.4-1 .2-.2.5-.3 1-.3s1 .1 1.1.3c.3.2.4.6.4 1.1v1.6c0 .4-.1.8-.4 1-.2.3-.5.4-1 .4-.6 0-1-.1-1.1-.4zm1.5-.4v-2.9l-.2-.1a.5.5 0 0 0-.3 0 .5.5 0 0 0-.2 0l-.1.1c-.2.2-.2.3-.2.5v2c0 .1 0 .3.2.5l.1.1a.6.6 0 0 0 .5 0l.2-.2zm2-3.5h1l.7 2.9.7-3h1V15h-.6l-.2-3-.6 3H37l-.7-3-.1 3h-.7v-4.2zm4.5 0h1.5c.8 0 1.2.3 1.2 1.1s-.4 1.2-1.3 1.2h-.5v2h-1v-4.3zm1.2 1.8h.3l.2-.2.2-.5v-.3l-.1-.1-.2-.1c0-.1-.3-.2-.4-.1h-.3v1.3h.3zm2.9-1.8h.9l1 4.2h-.9l-.1-1h-1l-.1 1h-.9l1-4.2zm.8 2.7-.4-1.8-.3 1.8h.7zm1.9-2.7h.6L49 13v-2.4h.7v4.2H49l-1.2-2.5v2.5h-.9v-4.2zm4.4 2.6-1-2.6h.8l.6 1.6.6-1.7h.8l-1 2.7v1.6h-.8v-1.6zm-21.5 3.5v.3h-.7v1.7h-.4V17h-.7v-.3h1.8zm2.3 2h-.4l-.2-.6h-1l-.2.6h-.3l.9-2h.3l1 2zm-1.5-.7h.9l-.4-.8v-.2.1l-.1.1-.4.8zm3 .5h.6V18H34h.7v.7l-.6.2h-.7a1 1 0 0 1-.4-.2l-.2-.4-.1-.4v-.4l.3-.3.4-.2a1.5 1.5 0 0 1 .7-.1c.2 0 .3 0 .4.2h.2l-.1.2h-.2L34 17a1 1 0 0 0-.3-.1 1 1 0 0 0-.4 0l-.3.2-.1.2v.7c0 .1 0 .2.2.3l.5.2zm3 0h1v.2h-1.3v-2h.2v1.8zm2 .2h-.3v-2h.3v2zm1.1-2 1.4 1.5v-1.5h.3v2h-.3L40 17.3v1.5h-.3v-2h.2zm4 0v.2h-1.1v.7h.8v.2h-.8v.7h1v.2h-1.4v-2h1.4zM11.2 4.6 25.1 8v11.7l-13.8-3.3V4.6zm-.9-1V17l15.5 3.7V7.5L10.5 3.6z"/>
      <path d="M18.7 27 3.2 23.3V9.8l15.5 3.9V27z"/>
      <path d="m10.7 4.5 13.5 3.3-5.7 5L4.9 9.4l5.8-5zm-.3-.9L3.2 9.8l15.5 3.9L26 7.4 10.5 3.6zm9.2 22.7 6.4-5.5-6.4-1.5v7z"/>
    </symbol>
    <symbol id="icon-mail_o" viewBox="0 0 43 32">
      <path d="M38.7 0H4C1.9 0 0 1.9 0 4v24c0 2.1 1.9 4 4 4h34.7c2.1 0 4-1.9 4-4V4c0-2.1-1.9-4-4-4zm0 2.7h.5L21.3 18 3.5 2.7h35.2zm0 26.6H4c-.7 0-1.3-.6-1.3-1.3V5.6l17.8 15.5.8.2.8-.2L40 5.3v22.4c0 .8-.5 1.4-1.3 1.4z"/>
    </symbol>
    <symbol id="icon-smartphone_o" viewBox="0 0 20 32">
      <path d="M17 0H3a3 3 0 0 0-3 3v26a3 3 0 0 0 3 3h14a3 3 0 0 0 3-3V3a3 3 0 0 0-3-3zM3 2h14c.6 0 1 .4 1 1v21H2V3c0-.6.4-1 1-1zm14 28H3a1 1 0 0 1-1-1v-3h16v3c0 .6-.4 1-1 1z"/>
      <path d="M4.8 27.4v1.4c-.4.4-1.2.4-1.6 0a.8.8 0 0 1 0-1.4c.4-.2 1.2-.2 1.6 0z"/>
    </symbol>
    <symbol id="icon-twit_o" viewBox="0 0 32 32">
      <path style="fill:var(--color3, #fff)" d="M32 16A16 16 0 0 1 4.7 27.4 16 16 0 0 1 15.9 0h.1a16 16 0 0 1 16 16z"/>
      <path style="fill:var(--color4, #afb1b8)" d="M23.3 11.5c-.5.2-1.1.4-1.8.4.6-.3 1.1-.9 1.3-1.6-.5.4-1.1.6-1.9.8a3 3 0 0 0-5 2.7 8.4 8.4 0 0 1-6.2-3.2 3 3 0 0 0 1 4c-.5 0-1-.1-1.4-.4v.1a3 3 0 0 0 2.4 2.9 2.9 2.9 0 0 1-1.4 0 3 3 0 0 0 2.8 2.1 6 6 0 0 1-4.4 1.3c1.3.9 3 1.3 4.6 1.3a8.4 8.4 0 0 0 8.4-8.8c.7-.4 1.1-1 1.6-1.5z"/>
    </symbol>
  </defs>
</svg>
