<svg aria-hidden="true" style="position: absolute; width: 0; height: 0; overflow: hidden;" version="1.1" xmlns="http://www.w3.org/2000/svg" xmlns:xlink="http://www.w3.org/1999/xlink">
<defs>
<symbol id="icon-icon_check_activ_o" viewBox="0 0 32 32">
<path d="M4.267 0h25.6c2.356 0 4.267 1.91 4.267 4.267v23.467c0 2.356-1.91 4.267-4.267 4.267h-25.6c-2.356 0-4.267-1.91-4.267-4.267v-23.467c0-2.356 1.91-4.267 4.267-4.267z"></path>
<path fill="#fff" style="fill: var(--color2, #fff); stroke: var(--color2, #fff)" stroke="#fff" stroke-linejoin="miter" stroke-linecap="butt" stroke-miterlimit="4" stroke-width="0.4267" d="M8.533 16.64l-0.213-0.213-2.133 1.92v0.213l7.467 7.253h0.213l16.213-15.36v-0.213l-2.133-1.92-14.080 13.44-5.333-5.12z"></path>
</symbol>
<symbol id="icon-mail_black_o" viewBox="0 0 43 32">
<path d="M37.333 0h-32c-2.133 0-4 1.867-4 4v24c0 2.133 1.867 4 4 4h32c2.133 0 4-1.867 4-4v-24c0-2.133-1.867-4-4-4zM36.533 8.533l-14.133 8.8c-0.533 0.533-1.6 0.533-2.133 0l-14.133-8.8c-0.422-0.298-0.694-0.784-0.694-1.333 0-0.899 0.729-1.628 1.628-1.628 0.349 0 0.673 0.11 0.938 0.298l-0.005-0.003 13.333 8 13.333-8c0.26-0.184 0.584-0.294 0.933-0.294 0.899 0 1.628 0.729 1.628 1.628 0 0.549-0.272 1.035-0.689 1.33l-0.005 0.003z"></path>
</symbol>
<symbol id="icon-person-black_o" viewBox="0 0 32 32">
<path d="M16 16c2.946 0 5.333-2.388 5.333-5.333s-2.388-5.333-5.333-5.333v0c-2.946 0-5.333 2.388-5.333 5.333s2.388 5.333 5.333 5.333v0zM16 18.667c-3.556 0-10.667 1.778-10.667 5.333v1.422c0 0.711 0.533 1.244 1.422 1.244h18.489c0.889 0 1.422-0.533 1.422-1.422v-1.244c0-3.556-7.111-5.333-10.667-5.333z"></path>
</symbol>
<symbol id="icon-phone-black_o" viewBox="0 0 32 32">
<path d="M24.889 19.733l-3.2-0.356c-0.889 0-1.778 0.178-2.133 0.711l-2.489 2.489c-3.556-1.778-6.578-4.978-8.356-8.533l2.311-2.489c0.533-0.533 0.889-1.244 0.711-1.956l-0.356-3.378c0-1.244-1.244-2.133-2.489-2.133h-2.311c-1.422 0-2.667 1.067-2.489 2.667 0.711 10.844 9.422 19.556 20.444 20.444 1.422 0 2.667-1.244 2.667-2.667v-2.133c0-1.422-1.067-2.489-2.311-2.667z"></path>
</symbol>
</defs>
</svg> 

