<svg width="44" height="44" fill="none" xmlns="http://www.w3.org/2000/svg">
  <path d="M44 22A22 22 0 0 1 6.4 37.6 22 22 0 0 1 22 0a22 22 0 0 1 22 22Z" fill="#fff"/>
  <g clip-path="url(#a)">
    <path d="M32 15.8c-.7.3-1.5.5-2.4.6a4 4 0 0 0 1.8-2.2c-.8.5-1.6.8-2.6 1a4.1 4.1 0 0 0-7 3.7c-3.4-.2-6.4-1.8-8.4-4.3a4.1 4.1 0 0 0 1.3 5.5 4 4 0 0 1-1.9-.5 4 4 0 0 0 3.3 4 4 4 0 0 1-1.9.1 4 4 0 0 0 3.9 2.9 8.2 8.2 0 0 1-6.1 1.7c1.8 1.2 4 1.8 6.3 1.8A11.6 11.6 0 0 0 29.9 18c.9-.5 1.5-1.3 2.1-2.1Z" fill="#AFB1B8"/>
  </g>
  <defs>
    <clipPath id="a">
      <path fill="#fff" transform="translate(12 12)" d="M0 0h20v20H0z"/>
    </clipPath>
  </defs>
</svg>
