<svg aria-hidden="true" style="position: absolute; width: 0; height: 0; overflow: hidden;" version="1.1" xmlns="http://www.w3.org/2000/svg" xmlns:xlink="http://www.w3.org/1999/xlink">
<defs>
<symbol id="icon-icon_check_activ_o" viewBox="0 0 34 32">
<path fill="#2196f3" style="fill: var(--color1, #2196f3)" d="M4.267 0h25.6c2.356 0 4.267 1.91 4.267 4.267v23.467c0 2.356-1.91 4.267-4.267 4.267h-25.6c-2.356 0-4.267-1.91-4.267-4.267v-23.467c0-2.356 1.91-4.267 4.267-4.267z"></path>
<path fill="#fff" style="fill: var(--color2, #fff); stroke: var(--color2, #fff)" stroke="#fff" stroke-linejoin="miter" stroke-linecap="butt" stroke-miterlimit="4" stroke-width="0.4267" d="M8.533 16.64l-0.213-0.213-2.133 1.92v0.213l7.467 7.253h0.213l16.213-15.36v-0.213l-2.133-1.92-14.080 13.44-5.333-5.12z"></path>
</symbol>
<symbol id="icon-mail_black_o" viewBox="0 0 43 32">
<path d="M37.333 0h-32c-2.133 0-4 1.867-4 4v24c0 2.133 1.867 4 4 4h32c2.133 0 4-1.867 4-4v-24c0-2.133-1.867-4-4-4zM36.533 8.533l-14.133 8.8c-0.533 0.533-1.6 0.533-2.133 0l-14.133-8.8c-0.422-0.298-0.694-0.784-0.694-1.333 0-0.899 0.729-1.628 1.628-1.628 0.349 0 0.673 0.11 0.938 0.298l-0.005-0.003 13.333 8 13.333-8c0.26-0.184 0.584-0.294 0.933-0.294 0.899 0 1.628 0.729 1.628 1.628 0 0.549-0.272 1.035-0.689 1.33l-0.005 0.003z"></path>
</symbol>
<symbol id="icon-person-black_o" viewBox="0 0 32 32">
<path d="M16 16c2.946 0 5.333-2.388 5.333-5.333s-2.388-5.333-5.333-5.333v0c-2.946 0-5.333 2.388-5.333 5.333s2.388 5.333 5.333 5.333v0zM16 18.667c-3.556 0-10.667 1.778-10.667 5.333v1.422c0 0.711 0.533 1.244 1.422 1.244h18.489c0.889 0 1.422-0.533 1.422-1.422v-1.244c0-3.556-7.111-5.333-10.667-5.333z"></path>
</symbol>
<symbol id="icon-phone-black_o" viewBox="0 0 32 32">
<path d="M24.889 19.733l-3.2-0.356c-0.889 0-1.778 0.178-2.133 0.711l-2.489 2.489c-3.556-1.778-6.578-4.978-8.356-8.533l2.311-2.489c0.533-0.533 0.889-1.244 0.711-1.956l-0.356-3.378c0-1.244-1.244-2.133-2.489-2.133h-2.311c-1.422 0-2.667 1.067-2.489 2.667 0.711 10.844 9.422 19.556 20.444 20.444 1.422 0 2.667-1.244 2.667-2.667v-2.133c0-1.422-1.067-2.489-2.311-2.667z"></path>
</symbol>
<symbol id="icon-che_activ_o" width="16" height="15" fill="#188ce8" xmlns="http://www.w3.org/2000/svg">
  <rect width="16" height="15" rx="2" fill="#"/>
  <path d="m4 7.8-.1-.1-1 .9v.1l3.5 3.4h.1l7.6-7.2v-.1l-1-.9-6.6 6.3L4 7.8Z" fill="#fff" stroke="#fff" stroke-width=".2"/>
</symbol>
<symbol id="icon-che_o" width="16" height="15" fill="" xmlns="http://www.w3.org/2000/svg">
  <path d="M14.2 1.7v11.6H1.8V1.7h12.4Zm0-1.7H1.8C.8 0 0 .8 0 1.7v11.6c0 1 .8 1.7 1.8 1.7h12.4c1 0 1.8-.8 1.8-1.7V1.7c0-1-.8-1.7-1.8-1.7Z" fill="#212121"/>
</symbol>
<symbol id="icon-check_vector_o" viewBox="0 0 42 32">
<path d="M6.4 15.36l-0.32-0.32-3.2 2.88v0.32l11.2 10.88h0.32l24.32-23.040v-0.32l-3.2-2.88-21.12 20.16-8-7.68z"></path>
</symbol>
<symbol id="icon-icon-send_o" viewBox="0 0 32 32">
<path d="M32 0l-32 18 10.267 3.733 15.733-14.667-12 16v8.933l5.733-6.667 7.333 2.667 4.933-28z"></path>
</symbol>
</defs>
</svg>
